<?xml version="1.0" standalone="no"?>
<!DOCTYPE svg PUBLIC "-//W3C//DTD SVG 20010904//EN"
 "http://www.w3.org/TR/2001/REC-SVG-20010904/DTD/svg10.dtd">
<svg version="1.0" xmlns="http://www.w3.org/2000/svg"
 width="488.000000pt" height="81.000000pt" viewBox="0 0 488.000000 81.000000"
 preserveAspectRatio="xMidYMid meet">

<g transform="translate(0.000000,81.000000) scale(0.100000,-0.100000)"
fill="#000000" stroke="none">
<path d="M210 570 l0 -240 -105 0 -105 0 0 -165 0 -165 105 0 105 0 0 165 0
165 105 0 105 0 0 -165 0 -165 43 0 c139 0 276 126 318 294 7 28 10 84 7 142
-5 83 -10 103 -42 168 -43 89 -122 166 -192 190 -35 12 -86 16 -196 16 l-148
0 0 -240z"/>
<path d="M1620 580 l0 -230 -315 0 -315 0 0 -50 0 -50 135 0 135 0 0 -125 0
-125 50 0 50 0 0 125 0 125 130 0 130 0 0 -125 0 -125 45 0 45 0 0 405 0 405
-45 0 -45 0 0 -230z"/>
<path d="M2350 525 l0 -285 -220 0 -220 0 0 240 0 240 -45 0 -45 0 0 -285 0
-285 265 0 265 0 0 -75 0 -75 45 0 45 0 0 405 0 405 -45 0 -45 0 0 -285z"/>
<path d="M3080 405 l0 -405 50 0 50 0 0 180 0 180 70 0 70 0 0 45 0 45 -70 0
-70 0 0 180 0 180 -50 0 -50 0 0 -405z"/>
<path d="M1208 766 c-106 -38 -155 -124 -129 -224 24 -88 92 -133 212 -140 94
-5 162 15 206 61 43 45 53 69 53 127 0 58 -10 81 -53 128 -54 56 -198 80 -289
48z m192 -91 c35 -18 50 -43 50 -85 0 -76 -57 -108 -178 -102 -24 1 -44 12
-68 36 -52 52 -44 108 19 146 39 24 135 27 177 5z"/>
<path d="M2665 701 c-50 -23 -78 -53 -107 -116 -20 -43 -23 -66 -22 -155 1
-117 12 -154 66 -216 41 -47 83 -64 153 -64 73 0 113 18 157 69 91 107 88 338
-5 440 -33 35 -96 61 -152 61 -27 0 -68 -9 -90 -19z m159 -102 c45 -36 60 -76
60 -164 1 -66 -4 -87 -23 -121 -27 -48 -58 -68 -106 -68 -48 0 -79 20 -106 68
-19 34 -24 55 -23 121 0 122 44 185 129 185 28 0 51 -7 69 -21z"/>
</g>
</svg>
